<svg xmlns="http://www.w3.org/2000/svg" xmlns:xlink="http://www.w3.org/1999/xlink" width="1070px" height="520px" viewBox="0 0 1070 520" preserveAspectRatio="xMidYMid meet"  xmlns:drawsvg="http://www.drawsvg.org" ><defs id="svgEditorDefs"><path id="svgEditorClosePathDefs" stroke="black" fill="khaki" style="stroke-width: 1px;"/></defs><rect id="svgEditorBackground" x="0" y="0" width="1070" height="520" style="fill: none; stroke: none;"/><g id="g_e3_svg"/><g id="e17_group"><path d="M365.625,249.75a4.432976,4.432976,0,1,1,5.5,-6.5" stroke="black" id="e7_circleArc" style="fill: none; stroke-width: 1px;"/><path d="M382.875,243.5a4.427342,4.427342,0,1,1,5.5,6.5" stroke="black" id="e8_circleArc" style="fill: none; stroke-width: 1px;"/><path d="M368.625,244.75a12.343917,12.343917,0,0,1,16,0.5" stroke="black" id="e9_circleArc" style="fill: none; stroke-width: 1px;"/><path d="M368.45654381003334,261.85353135497087a12.264193,12.264193,0,1,0,20.628149380239165,0.25000000000005684" stroke="black" id="e10_circleArc" style="fill: none; stroke-width: 1px;" transform="matrix(1.02631 0 0 1.24725 -11.8733 -79.3237)"/><circle id="e11_circle" cx="372.67047119140625" cy="255.3408813476563" style="stroke-width: 1px; stroke: none;" r="2.5" fill="black" transform="matrix(0.44 0 0 0.44 208.4 139.9)"/><circle id="e2_circle" cx="392.21588134765625" cy="255.56820678710938" style="stroke-width: 1px; stroke: none;" r="2.5" fill="black" transform="matrix(0.44 0 0 0.44 208.4 139.9)"/><path d="M369.875,252.25a2.379182,2.379182,0,0,1,3.75,-2.25" stroke="black" id="e12_circleArc" style="fill: none; stroke-width: 1px;" transform="matrix(0.994175 0.107775 -0.107775 0.994175 29.206 -38.6028)"/><path d="M377.76872364528504,252.61648143738816a2.379182,2.379182,0,0,1,3.75,-2.25" stroke="black" id="e1_circleArc" style="fill: none; stroke-width: 1px;" transform="matrix(0.672735 0.810515 -0.810515 0.672735 329.867 -225.433)"/><path d="M375.2646325538673,257.2794202154073c1.8045788753121883,-0.8590987850301985,5.736816657822544,7.646354051967705,4.976735231324994,8.534112721409883s-7.351471107354087,0.5894156186562896,-10.37770522931936,-0.4479997669137674s3.7110544815353137,-8.316687895131906,5.400969997994366,-8.086112954496116Z" id="e14_areaS3" fill="black" style="stroke-width: 1px;" transform="matrix(-0.787113 0.0646917 -0.0646917 -0.787113 688.991 440.371)"/><line id="e15_line" x1="372.875" y1="264.25" x2="381.125" y2="264.25" stroke="black" style="stroke-width: 1px; fill: none;" /></g><g id="e14_group"><path d="M365.625,249.75a4.432976,4.432976,0,1,1,5.5,-6.5" stroke="black" id="e14_circleArc" style="fill: none; stroke-width: 1px;"/><path d="M382.875,243.5a4.427342,4.427342,0,1,1,5.5,6.5" stroke="black" id="e15_circleArc" style="fill: none; stroke-width: 1px;"/><path d="M368.625,244.75a12.343917,12.343917,0,0,1,16,0.5" stroke="black" id="e16_circleArc" style="fill: none; stroke-width: 1px;"/><path d="M368.45654381003334,261.85353135497087a12.264193,12.264193,0,1,0,20.628149380239165,0.25000000000005684" stroke="black" id="e17_circleArc" style="fill: none; stroke-width: 1px;" transform="matrix(1.02631 0 0 1.24725 -11.8733 -79.3237)"/><circle id="e17_circle" cx="372.67047119140625" cy="255.3408813476563" style="stroke-width: 1px; stroke: none;" r="2.5" fill="black" transform="matrix(0.44 0 0 0.44 208.4 139.9)"/><circle id="e18_circle" cx="392.21588134765625" cy="255.56820678710938" style="stroke-width: 1px; stroke: none;" r="2.5" fill="black" transform="matrix(0.44 0 0 0.44 208.4 139.9)"/><path d="M369.875,252.25a2.379182,2.379182,0,0,1,3.75,-2.25" stroke="black" id="e18_circleArc" style="fill: none; stroke-width: 1px;" transform="matrix(0.994175 0.107775 -0.107775 0.994175 29.206 -38.6028)"/><path d="M377.76872364528504,252.61648143738816a2.379182,2.379182,0,0,1,3.75,-2.25" stroke="black" id="e19_circleArc" style="fill: none; stroke-width: 1px;" transform="matrix(0.672735 0.810515 -0.810515 0.672735 329.867 -225.433)"/><path d="M375.2646325538673,257.2794202154073c1.8045788753121883,-0.8590987850301985,5.736816657822544,7.646354051967705,4.976735231324994,8.534112721409883s-7.351471107354087,0.5894156186562896,-10.37770522931936,-0.4479997669137674s3.7110544815353137,-8.316687895131906,5.400969997994366,-8.086112954496116Z" id="e19_areaS3" fill="black" style="stroke-width: 1px;" transform="matrix(-0.787113 0.0646917 -0.0646917 -0.787113 688.991 440.371)"/><line id="e19_line" x1="372.875" y1="264.25" x2="381.125" y2="264.25" stroke="black" style="stroke-width: 1px; fill: none;" /></g></svg>